<?xml version="1.0" encoding="UTF-8"?><svg id="Layer_1" xmlns="http://www.w3.org/2000/svg" viewBox="0 0 14 5.8"><defs><style>.cls-1{fill:#ea9e30;}.cls-2{fill:#edeef7;}</style></defs><path class="cls-2" d="m13.95,2.8c-.08.18-.25.38-1.86.8-1.48.39-1.8.34-2.88.62-1.22.32-1.21.48-2.86.97-1.35.41-2.03.61-2.48.59C1.55,5.68-.38,2.71.06,2.08c.28-.39,1.24.48,3.25.27,1.08-.11,1.96-.49,3.45-1.12,1.46-.62,1.46-.78,2.26-.98.71-.18,2.01-.5,3.22.12,1.05.53,1.99,1.73,1.7,2.44Z"/><path class="cls-1" d="m8.43,1.38c-.04.82-1.12,1.38-1.86,1.77-.6.31-.99.51-1.56.52-.09,0-1.25,0-1.39-.44-.2-.63,1.74-1.71,3.03-2.19,1.21-.45,1.53-.25,1.64-.14.15.16.14.38.13.48Z"/><path class="cls-2" d="m5.83,1.94c-.06-.15.42-.62.93-.59.23.02.55.14.57.33.01.13-.14.26-.25.31-.14.07-.26.05-.57.02-.57-.05-.66-.02-.68-.08Z"/></svg>